<?xml version="1.0" encoding="UTF-8" standalone="no"?>
<svg xmlns="http://www.w3.org/2000/svg" height="256" width="256" version="1.1" viewBox="0 0 67.733332 67.733335">
 <g transform="translate(0 -229.3)">
  <rect style="color-rendering:auto;color:#000000;isolation:auto;mix-blend-mode:normal;shape-rendering:auto;solid-color:#000000;image-rendering:auto" height="67.73" width="67.73" y="229.3" x="7.947e-9"/>
  <g style="opacity:.1" transform="translate(37.04)">
   <g transform="translate(-37.04 -.000009533)">
    <g transform="matrix(.9951 0 0 .9951 35.93 98.02)">
     <path d="m21.69 134.2 0.7135-0.7135 1.276 2.21 1.068-1.068 0.3716 0.6144-1.803 1.803z" style="fill:#fff;fill-rule:evenodd"/>
     <path style="fill:#fff;fill-rule:evenodd" d="m92.96 496.2-7.062 7.061 4.275 7.283 4.656-4.726 1.951 3.506 2.383-2.438zm-1.018 4.728 1.36 2.387-2.651 2.665-1.353-2.42z" transform="scale(.2646)"/>
    </g>
    <g transform="matrix(.9951 0 0 .9951 41.76 98.02)">
     <path style="fill:#fff;fill-rule:evenodd" d="m21.69 134.2 0.7135-0.7135 1.276 2.21 1.068-1.068 0.3716 0.6144-1.803 1.803z"/>
     <path style="fill:#fff;fill-rule:evenodd" d="m92.96 496.2-7.062 7.061 4.275 7.283 4.656-4.726 1.951 3.506 2.383-2.438zm-1.018 4.728 1.36 2.387-2.651 2.665-1.353-2.42z" transform="scale(.2646)"/>
    </g>
    <g transform="matrix(.9951 0 0 .9951 30.11 98.02)">
     <path style="fill:#fff;fill-rule:evenodd" d="m21.69 134.2 0.7135-0.7135 1.276 2.21 1.068-1.068 0.3716 0.6144-1.803 1.803z"/>
     <path style="fill:#fff;fill-rule:evenodd" d="m92.96 496.2-7.062 7.061 4.275 7.283 4.656-4.726 1.951 3.506 2.383-2.438zm-1.018 4.728 1.36 2.387-2.651 2.665-1.353-2.42z" transform="scale(.2646)"/>
    </g>
    <g transform="matrix(.9951 0 0 .9951 24.29 98.02)">
     <path d="m21.69 134.2 0.7135-0.7135 1.276 2.21 1.068-1.068 0.3716 0.6144-1.803 1.803z" style="fill:#fff;fill-rule:evenodd"/>
     <path style="fill:#fff;fill-rule:evenodd" d="m92.96 496.2-7.062 7.061 4.275 7.283 4.656-4.726 1.951 3.506 2.383-2.438zm-1.018 4.728 1.36 2.387-2.651 2.665-1.353-2.42z" transform="scale(.2646)"/>
    </g>
    <g transform="matrix(.9951 0 0 .9951 18.47 98.02)">
     <path style="fill:#fff;fill-rule:evenodd" d="m21.69 134.2 0.7135-0.7135 1.276 2.21 1.068-1.068 0.3716 0.6144-1.803 1.803z"/>
     <path style="fill:#fff;fill-rule:evenodd" d="m92.96 496.2-7.062 7.061 4.275 7.283 4.656-4.726 1.951 3.506 2.383-2.438zm-1.018 4.728 1.36 2.387-2.651 2.665-1.353-2.42z" transform="scale(.2646)"/>
    </g>
    <g transform="matrix(.9951 0 0 .9951 12.65 98.02)">
     <path d="m21.69 134.2 0.7135-0.7135 1.276 2.21 1.068-1.068 0.3716 0.6144-1.803 1.803z" style="fill:#fff;fill-rule:evenodd"/>
     <path style="fill:#fff;fill-rule:evenodd" d="m92.96 496.2-7.062 7.061 4.275 7.283 4.656-4.726 1.951 3.506 2.383-2.438zm-1.018 4.728 1.36 2.387-2.651 2.665-1.353-2.42z" transform="scale(.2646)"/>
    </g>
    <g transform="matrix(.9951 0 0 .9951 6.83 98.02)">
     <path style="fill:#fff;fill-rule:evenodd" d="m21.69 134.2 0.7135-0.7135 1.276 2.21 1.068-1.068 0.3716 0.6144-1.803 1.803z"/>
     <path style="fill:#fff;fill-rule:evenodd" d="m92.96 496.2-7.062 7.061 4.275 7.283 4.656-4.726 1.951 3.506 2.383-2.438zm-1.018 4.728 1.36 2.387-2.651 2.665-1.353-2.42z" transform="scale(.2646)"/>
    </g>
    <g transform="matrix(.9951 0 0 .9951 1.009 98.02)">
     <path d="m21.69 134.2 0.7135-0.7135 1.276 2.21 1.068-1.068 0.3716 0.6144-1.803 1.803z" style="fill:#fff;fill-rule:evenodd"/>
     <path style="fill:#fff;fill-rule:evenodd" d="m92.96 496.2-7.062 7.061 4.275 7.283 4.656-4.726 1.951 3.506 2.383-2.438zm-1.018 4.728 1.36 2.387-2.651 2.665-1.353-2.42z" transform="scale(.2646)"/>
    </g>
    <g transform="matrix(.9951 0 0 .9951 -4.811 98.02)">
     <path style="fill:#fff;fill-rule:evenodd" d="m21.69 134.2 0.7135-0.7135 1.276 2.21 1.068-1.068 0.3716 0.6144-1.803 1.803z"/>
     <path style="fill:#fff;fill-rule:evenodd" d="m92.96 496.2-7.062 7.061 4.275 7.283 4.656-4.726 1.951 3.506 2.383-2.438zm-1.018 4.728 1.36 2.387-2.651 2.665-1.353-2.42z" transform="scale(.2646)"/>
    </g>
    <g transform="matrix(.9951 0 0 .9951 -10.63 98.02)">
     <path d="m21.69 134.2 0.7135-0.7135 1.276 2.21 1.068-1.068 0.3716 0.6144-1.803 1.803z" style="fill:#fff;fill-rule:evenodd"/>
     <path style="fill:#fff;fill-rule:evenodd" d="m92.96 496.2-7.062 7.061 4.275 7.283 4.656-4.726 1.951 3.506 2.383-2.438zm-1.018 4.728 1.36 2.387-2.651 2.665-1.353-2.42z" transform="scale(.2646)"/>
    </g>
    <g transform="matrix(.9951 0 0 .9951 -16.45 98.02)">
     <path style="fill:#fff;fill-rule:evenodd" d="m21.69 134.2 0.7135-0.7135 1.276 2.21 1.068-1.068 0.3716 0.6144-1.803 1.803z"/>
     <path style="fill:#fff;fill-rule:evenodd" d="m92.96 496.2-7.062 7.061 4.275 7.283 4.656-4.726 1.951 3.506 2.383-2.438zm-1.018 4.728 1.36 2.387-2.651 2.665-1.353-2.42z" transform="scale(.2646)"/>
    </g>
    <g transform="matrix(.9951 0 0 .9951 -22.27 98.02)">
     <path d="m21.69 134.2 0.7135-0.7135 1.276 2.21 1.068-1.068 0.3716 0.6144-1.803 1.803z" style="fill:#fff;fill-rule:evenodd"/>
     <path style="fill:#fff;fill-rule:evenodd" d="m92.96 496.2-7.062 7.061 4.275 7.283 4.656-4.726 1.951 3.506 2.383-2.438zm-1.018 4.728 1.36 2.387-2.651 2.665-1.353-2.42z" transform="scale(.2646)"/>
    </g>
   </g>
   <g transform="translate(-37.04 5.773)">
    <g transform="matrix(.9951 0 0 .9951 35.93 98.02)">
     <path style="fill:#fff;fill-rule:evenodd" d="m21.69 134.2 0.7135-0.7135 1.276 2.21 1.068-1.068 0.3716 0.6144-1.803 1.803z"/>
     <path style="fill:#fff;fill-rule:evenodd" d="m92.96 496.2-7.062 7.061 4.275 7.283 4.656-4.726 1.951 3.506 2.383-2.438zm-1.018 4.728 1.36 2.387-2.651 2.665-1.353-2.42z" transform="scale(.2646)"/>
    </g>
    <g transform="matrix(.9951 0 0 .9951 41.76 98.02)">
     <path d="m21.69 134.2 0.7135-0.7135 1.276 2.21 1.068-1.068 0.3716 0.6144-1.803 1.803z" style="fill:#fff;fill-rule:evenodd"/>
     <path style="fill:#fff;fill-rule:evenodd" d="m92.96 496.2-7.062 7.061 4.275 7.283 4.656-4.726 1.951 3.506 2.383-2.438zm-1.018 4.728 1.36 2.387-2.651 2.665-1.353-2.42z" transform="scale(.2646)"/>
    </g>
    <g transform="matrix(.9951 0 0 .9951 30.11 98.02)">
     <path d="m21.69 134.2 0.7135-0.7135 1.276 2.21 1.068-1.068 0.3716 0.6144-1.803 1.803z" style="fill:#fff;fill-rule:evenodd"/>
     <path style="fill:#fff;fill-rule:evenodd" d="m92.96 496.2-7.062 7.061 4.275 7.283 4.656-4.726 1.951 3.506 2.383-2.438zm-1.018 4.728 1.36 2.387-2.651 2.665-1.353-2.42z" transform="scale(.2646)"/>
    </g>
    <g transform="matrix(.9951 0 0 .9951 24.29 98.02)">
     <path style="fill:#fff;fill-rule:evenodd" d="m21.69 134.2 0.7135-0.7135 1.276 2.21 1.068-1.068 0.3716 0.6144-1.803 1.803z"/>
     <path style="fill:#fff;fill-rule:evenodd" d="m92.96 496.2-7.062 7.061 4.275 7.283 4.656-4.726 1.951 3.506 2.383-2.438zm-1.018 4.728 1.36 2.387-2.651 2.665-1.353-2.42z" transform="scale(.2646)"/>
    </g>
    <g transform="matrix(.9951 0 0 .9951 18.47 98.02)">
     <path d="m21.69 134.2 0.7135-0.7135 1.276 2.21 1.068-1.068 0.3716 0.6144-1.803 1.803z" style="fill:#fff;fill-rule:evenodd"/>
     <path style="fill:#fff;fill-rule:evenodd" d="m92.96 496.2-7.062 7.061 4.275 7.283 4.656-4.726 1.951 3.506 2.383-2.438zm-1.018 4.728 1.36 2.387-2.651 2.665-1.353-2.42z" transform="scale(.2646)"/>
    </g>
    <g transform="matrix(.9951 0 0 .9951 12.65 98.02)">
     <path style="fill:#fff;fill-rule:evenodd" d="m21.69 134.2 0.7135-0.7135 1.276 2.21 1.068-1.068 0.3716 0.6144-1.803 1.803z"/>
     <path style="fill:#fff;fill-rule:evenodd" d="m92.96 496.2-7.062 7.061 4.275 7.283 4.656-4.726 1.951 3.506 2.383-2.438zm-1.018 4.728 1.36 2.387-2.651 2.665-1.353-2.42z" transform="scale(.2646)"/>
    </g>
    <g transform="matrix(.9951 0 0 .9951 6.83 98.02)">
     <path d="m21.69 134.2 0.7135-0.7135 1.276 2.21 1.068-1.068 0.3716 0.6144-1.803 1.803z" style="fill:#fff;fill-rule:evenodd"/>
     <path style="fill:#fff;fill-rule:evenodd" d="m92.96 496.2-7.062 7.061 4.275 7.283 4.656-4.726 1.951 3.506 2.383-2.438zm-1.018 4.728 1.36 2.387-2.651 2.665-1.353-2.42z" transform="scale(.2646)"/>
    </g>
    <g transform="matrix(.9951 0 0 .9951 1.009 98.02)">
     <path style="fill:#fff;fill-rule:evenodd" d="m21.69 134.2 0.7135-0.7135 1.276 2.21 1.068-1.068 0.3716 0.6144-1.803 1.803z"/>
     <path style="fill:#fff;fill-rule:evenodd" d="m92.96 496.2-7.062 7.061 4.275 7.283 4.656-4.726 1.951 3.506 2.383-2.438zm-1.018 4.728 1.36 2.387-2.651 2.665-1.353-2.42z" transform="scale(.2646)"/>
    </g>
    <g transform="matrix(.9951 0 0 .9951 -4.811 98.02)">
     <path d="m21.69 134.2 0.7135-0.7135 1.276 2.21 1.068-1.068 0.3716 0.6144-1.803 1.803z" style="fill:#fff;fill-rule:evenodd"/>
     <path style="fill:#fff;fill-rule:evenodd" d="m92.96 496.2-7.062 7.061 4.275 7.283 4.656-4.726 1.951 3.506 2.383-2.438zm-1.018 4.728 1.36 2.387-2.651 2.665-1.353-2.42z" transform="scale(.2646)"/>
    </g>
    <g transform="matrix(.9951 0 0 .9951 -10.63 98.02)">
     <path style="fill:#fff;fill-rule:evenodd" d="m21.69 134.2 0.7135-0.7135 1.276 2.21 1.068-1.068 0.3716 0.6144-1.803 1.803z"/>
     <path style="fill:#fff;fill-rule:evenodd" d="m92.96 496.2-7.062 7.061 4.275 7.283 4.656-4.726 1.951 3.506 2.383-2.438zm-1.018 4.728 1.36 2.387-2.651 2.665-1.353-2.42z" transform="scale(.2646)"/>
    </g>
    <g transform="matrix(.9951 0 0 .9951 -16.45 98.02)">
     <path d="m21.69 134.2 0.7135-0.7135 1.276 2.21 1.068-1.068 0.3716 0.6144-1.803 1.803z" style="fill:#fff;fill-rule:evenodd"/>
     <path style="fill:#fff;fill-rule:evenodd" d="m92.96 496.2-7.062 7.061 4.275 7.283 4.656-4.726 1.951 3.506 2.383-2.438zm-1.018 4.728 1.36 2.387-2.651 2.665-1.353-2.42z" transform="scale(.2646)"/>
    </g>
    <g transform="matrix(.9951 0 0 .9951 -22.27 98.02)">
     <path style="fill:#fff;fill-rule:evenodd" d="m21.69 134.2 0.7135-0.7135 1.276 2.21 1.068-1.068 0.3716 0.6144-1.803 1.803z"/>
     <path style="fill:#fff;fill-rule:evenodd" d="m92.96 496.2-7.062 7.061 4.275 7.283 4.656-4.726 1.951 3.506 2.383-2.438zm-1.018 4.728 1.36 2.387-2.651 2.665-1.353-2.42z" transform="scale(.2646)"/>
    </g>
   </g>
   <g transform="translate(-37.04 11.55)">
    <g transform="matrix(.9951 0 0 .9951 35.93 98.02)">
     <path d="m21.69 134.2 0.7135-0.7135 1.276 2.21 1.068-1.068 0.3716 0.6144-1.803 1.803z" style="fill:#fff;fill-rule:evenodd"/>
     <path style="fill:#fff;fill-rule:evenodd" d="m92.96 496.2-7.062 7.061 4.275 7.283 4.656-4.726 1.951 3.506 2.383-2.438zm-1.018 4.728 1.36 2.387-2.651 2.665-1.353-2.42z" transform="scale(.2646)"/>
    </g>
    <g transform="matrix(.9951 0 0 .9951 41.76 98.02)">
     <path style="fill:#fff;fill-rule:evenodd" d="m21.69 134.2 0.7135-0.7135 1.276 2.21 1.068-1.068 0.3716 0.6144-1.803 1.803z"/>
     <path style="fill:#fff;fill-rule:evenodd" d="m92.96 496.2-7.062 7.061 4.275 7.283 4.656-4.726 1.951 3.506 2.383-2.438zm-1.018 4.728 1.36 2.387-2.651 2.665-1.353-2.42z" transform="scale(.2646)"/>
    </g>
    <g transform="matrix(.9951 0 0 .9951 30.11 98.02)">
     <path style="fill:#fff;fill-rule:evenodd" d="m21.69 134.2 0.7135-0.7135 1.276 2.21 1.068-1.068 0.3716 0.6144-1.803 1.803z"/>
     <path style="fill:#fff;fill-rule:evenodd" d="m92.96 496.2-7.062 7.061 4.275 7.283 4.656-4.726 1.951 3.506 2.383-2.438zm-1.018 4.728 1.36 2.387-2.651 2.665-1.353-2.42z" transform="scale(.2646)"/>
    </g>
    <g transform="matrix(.9951 0 0 .9951 24.29 98.02)">
     <path d="m21.69 134.2 0.7135-0.7135 1.276 2.21 1.068-1.068 0.3716 0.6144-1.803 1.803z" style="fill:#fff;fill-rule:evenodd"/>
     <path style="fill:#fff;fill-rule:evenodd" d="m92.96 496.2-7.062 7.061 4.275 7.283 4.656-4.726 1.951 3.506 2.383-2.438zm-1.018 4.728 1.36 2.387-2.651 2.665-1.353-2.42z" transform="scale(.2646)"/>
    </g>
    <g transform="matrix(.9951 0 0 .9951 18.47 98.02)">
     <path style="fill:#fff;fill-rule:evenodd" d="m21.69 134.2 0.7135-0.7135 1.276 2.21 1.068-1.068 0.3716 0.6144-1.803 1.803z"/>
     <path style="fill:#fff;fill-rule:evenodd" d="m92.96 496.2-7.062 7.061 4.275 7.283 4.656-4.726 1.951 3.506 2.383-2.438zm-1.018 4.728 1.36 2.387-2.651 2.665-1.353-2.42z" transform="scale(.2646)"/>
    </g>
    <g transform="matrix(.9951 0 0 .9951 12.65 98.02)">
     <path d="m21.69 134.2 0.7135-0.7135 1.276 2.21 1.068-1.068 0.3716 0.6144-1.803 1.803z" style="fill:#fff;fill-rule:evenodd"/>
     <path style="fill:#fff;fill-rule:evenodd" d="m92.96 496.2-7.062 7.061 4.275 7.283 4.656-4.726 1.951 3.506 2.383-2.438zm-1.018 4.728 1.36 2.387-2.651 2.665-1.353-2.42z" transform="scale(.2646)"/>
    </g>
    <g transform="matrix(.9951 0 0 .9951 6.83 98.02)">
     <path style="fill:#fff;fill-rule:evenodd" d="m21.69 134.2 0.7135-0.7135 1.276 2.21 1.068-1.068 0.3716 0.6144-1.803 1.803z"/>
     <path style="fill:#fff;fill-rule:evenodd" d="m92.96 496.2-7.062 7.061 4.275 7.283 4.656-4.726 1.951 3.506 2.383-2.438zm-1.018 4.728 1.36 2.387-2.651 2.665-1.353-2.42z" transform="scale(.2646)"/>
    </g>
    <g transform="matrix(.9951 0 0 .9951 1.009 98.02)">
     <path d="m21.69 134.2 0.7135-0.7135 1.276 2.21 1.068-1.068 0.3716 0.6144-1.803 1.803z" style="fill:#fff;fill-rule:evenodd"/>
     <path style="fill:#fff;fill-rule:evenodd" d="m92.96 496.2-7.062 7.061 4.275 7.283 4.656-4.726 1.951 3.506 2.383-2.438zm-1.018 4.728 1.36 2.387-2.651 2.665-1.353-2.42z" transform="scale(.2646)"/>
    </g>
    <g transform="matrix(.9951 0 0 .9951 -4.811 98.02)">
     <path style="fill:#fff;fill-rule:evenodd" d="m21.69 134.2 0.7135-0.7135 1.276 2.21 1.068-1.068 0.3716 0.6144-1.803 1.803z"/>
     <path style="fill:#fff;fill-rule:evenodd" d="m92.96 496.2-7.062 7.061 4.275 7.283 4.656-4.726 1.951 3.506 2.383-2.438zm-1.018 4.728 1.36 2.387-2.651 2.665-1.353-2.42z" transform="scale(.2646)"/>
    </g>
    <g transform="matrix(.9951 0 0 .9951 -10.63 98.02)">
     <path d="m21.69 134.2 0.7135-0.7135 1.276 2.21 1.068-1.068 0.3716 0.6144-1.803 1.803z" style="fill:#fff;fill-rule:evenodd"/>
     <path style="fill:#fff;fill-rule:evenodd" d="m92.96 496.2-7.062 7.061 4.275 7.283 4.656-4.726 1.951 3.506 2.383-2.438zm-1.018 4.728 1.36 2.387-2.651 2.665-1.353-2.42z" transform="scale(.2646)"/>
    </g>
    <g transform="matrix(.9951 0 0 .9951 -16.45 98.02)">
     <path style="fill:#fff;fill-rule:evenodd" d="m21.69 134.2 0.7135-0.7135 1.276 2.21 1.068-1.068 0.3716 0.6144-1.803 1.803z"/>
     <path style="fill:#fff;fill-rule:evenodd" d="m92.96 496.2-7.062 7.061 4.275 7.283 4.656-4.726 1.951 3.506 2.383-2.438zm-1.018 4.728 1.36 2.387-2.651 2.665-1.353-2.42z" transform="scale(.2646)"/>
    </g>
    <g transform="matrix(.9951 0 0 .9951 -22.27 98.02)">
     <path d="m21.69 134.2 0.7135-0.7135 1.276 2.21 1.068-1.068 0.3716 0.6144-1.803 1.803z" style="fill:#fff;fill-rule:evenodd"/>
     <path style="fill:#fff;fill-rule:evenodd" d="m92.96 496.2-7.062 7.061 4.275 7.283 4.656-4.726 1.951 3.506 2.383-2.438zm-1.018 4.728 1.36 2.387-2.651 2.665-1.353-2.42z" transform="scale(.2646)"/>
    </g>
   </g>
   <g transform="translate(-37.04 17.32)">
    <g transform="matrix(.9951 0 0 .9951 35.93 98.02)">
     <path style="fill:#fff;fill-rule:evenodd" d="m21.69 134.2 0.7135-0.7135 1.276 2.21 1.068-1.068 0.3716 0.6144-1.803 1.803z"/>
     <path style="fill:#fff;fill-rule:evenodd" d="m92.96 496.2-7.062 7.061 4.275 7.283 4.656-4.726 1.951 3.506 2.383-2.438zm-1.018 4.728 1.36 2.387-2.651 2.665-1.353-2.42z" transform="scale(.2646)"/>
    </g>
    <g transform="matrix(.9951 0 0 .9951 41.76 98.02)">
     <path d="m21.69 134.2 0.7135-0.7135 1.276 2.21 1.068-1.068 0.3716 0.6144-1.803 1.803z" style="fill:#fff;fill-rule:evenodd"/>
     <path style="fill:#fff;fill-rule:evenodd" d="m92.96 496.2-7.062 7.061 4.275 7.283 4.656-4.726 1.951 3.506 2.383-2.438zm-1.018 4.728 1.36 2.387-2.651 2.665-1.353-2.42z" transform="scale(.2646)"/>
    </g>
    <g transform="matrix(.9951 0 0 .9951 30.11 98.02)">
     <path d="m21.69 134.2 0.7135-0.7135 1.276 2.21 1.068-1.068 0.3716 0.6144-1.803 1.803z" style="fill:#fff;fill-rule:evenodd"/>
     <path style="fill:#fff;fill-rule:evenodd" d="m92.96 496.2-7.062 7.061 4.275 7.283 4.656-4.726 1.951 3.506 2.383-2.438zm-1.018 4.728 1.36 2.387-2.651 2.665-1.353-2.42z" transform="scale(.2646)"/>
    </g>
    <g transform="matrix(.9951 0 0 .9951 24.29 98.02)">
     <path style="fill:#fff;fill-rule:evenodd" d="m21.69 134.2 0.7135-0.7135 1.276 2.21 1.068-1.068 0.3716 0.6144-1.803 1.803z"/>
     <path style="fill:#fff;fill-rule:evenodd" d="m92.96 496.2-7.062 7.061 4.275 7.283 4.656-4.726 1.951 3.506 2.383-2.438zm-1.018 4.728 1.36 2.387-2.651 2.665-1.353-2.42z" transform="scale(.2646)"/>
    </g>
    <g transform="matrix(.9951 0 0 .9951 18.47 98.02)">
     <path d="m21.69 134.2 0.7135-0.7135 1.276 2.21 1.068-1.068 0.3716 0.6144-1.803 1.803z" style="fill:#fff;fill-rule:evenodd"/>
     <path style="fill:#fff;fill-rule:evenodd" d="m92.96 496.2-7.062 7.061 4.275 7.283 4.656-4.726 1.951 3.506 2.383-2.438zm-1.018 4.728 1.36 2.387-2.651 2.665-1.353-2.42z" transform="scale(.2646)"/>
    </g>
    <g transform="matrix(.9951 0 0 .9951 12.65 98.02)">
     <path style="fill:#fff;fill-rule:evenodd" d="m21.69 134.2 0.7135-0.7135 1.276 2.21 1.068-1.068 0.3716 0.6144-1.803 1.803z"/>
     <path style="fill:#fff;fill-rule:evenodd" d="m92.96 496.2-7.062 7.061 4.275 7.283 4.656-4.726 1.951 3.506 2.383-2.438zm-1.018 4.728 1.36 2.387-2.651 2.665-1.353-2.42z" transform="scale(.2646)"/>
    </g>
    <g transform="matrix(.9951 0 0 .9951 6.83 98.02)">
     <path d="m21.69 134.2 0.7135-0.7135 1.276 2.21 1.068-1.068 0.3716 0.6144-1.803 1.803z" style="fill:#fff;fill-rule:evenodd"/>
     <path style="fill:#fff;fill-rule:evenodd" d="m92.96 496.2-7.062 7.061 4.275 7.283 4.656-4.726 1.951 3.506 2.383-2.438zm-1.018 4.728 1.36 2.387-2.651 2.665-1.353-2.42z" transform="scale(.2646)"/>
    </g>
    <g transform="matrix(.9951 0 0 .9951 1.009 98.02)">
     <path style="fill:#fff;fill-rule:evenodd" d="m21.69 134.2 0.7135-0.7135 1.276 2.21 1.068-1.068 0.3716 0.6144-1.803 1.803z"/>
     <path style="fill:#fff;fill-rule:evenodd" d="m92.96 496.2-7.062 7.061 4.275 7.283 4.656-4.726 1.951 3.506 2.383-2.438zm-1.018 4.728 1.36 2.387-2.651 2.665-1.353-2.42z" transform="scale(.2646)"/>
    </g>
    <g transform="matrix(.9951 0 0 .9951 -4.811 98.02)">
     <path d="m21.69 134.2 0.7135-0.7135 1.276 2.21 1.068-1.068 0.3716 0.6144-1.803 1.803z" style="fill:#fff;fill-rule:evenodd"/>
     <path style="fill:#fff;fill-rule:evenodd" d="m92.96 496.2-7.062 7.061 4.275 7.283 4.656-4.726 1.951 3.506 2.383-2.438zm-1.018 4.728 1.36 2.387-2.651 2.665-1.353-2.42z" transform="scale(.2646)"/>
    </g>
    <g transform="matrix(.9951 0 0 .9951 -10.63 98.02)">
     <path style="fill:#fff;fill-rule:evenodd" d="m21.69 134.2 0.7135-0.7135 1.276 2.21 1.068-1.068 0.3716 0.6144-1.803 1.803z"/>
     <path style="fill:#fff;fill-rule:evenodd" d="m92.96 496.2-7.062 7.061 4.275 7.283 4.656-4.726 1.951 3.506 2.383-2.438zm-1.018 4.728 1.36 2.387-2.651 2.665-1.353-2.42z" transform="scale(.2646)"/>
    </g>
    <g transform="matrix(.9951 0 0 .9951 -16.45 98.02)">
     <path d="m21.69 134.2 0.7135-0.7135 1.276 2.21 1.068-1.068 0.3716 0.6144-1.803 1.803z" style="fill:#fff;fill-rule:evenodd"/>
     <path style="fill:#fff;fill-rule:evenodd" d="m92.96 496.2-7.062 7.061 4.275 7.283 4.656-4.726 1.951 3.506 2.383-2.438zm-1.018 4.728 1.36 2.387-2.651 2.665-1.353-2.42z" transform="scale(.2646)"/>
    </g>
    <g transform="matrix(.9951 0 0 .9951 -22.27 98.02)">
     <path style="fill:#fff;fill-rule:evenodd" d="m21.69 134.2 0.7135-0.7135 1.276 2.21 1.068-1.068 0.3716 0.6144-1.803 1.803z"/>
     <path style="fill:#fff;fill-rule:evenodd" d="m92.96 496.2-7.062 7.061 4.275 7.283 4.656-4.726 1.951 3.506 2.383-2.438zm-1.018 4.728 1.36 2.387-2.651 2.665-1.353-2.42z" transform="scale(.2646)"/>
    </g>
   </g>
   <g transform="translate(-37.04 23.09)">
    <g transform="matrix(.9951 0 0 .9951 35.93 98.02)">
     <path d="m21.69 134.2 0.7135-0.7135 1.276 2.21 1.068-1.068 0.3716 0.6144-1.803 1.803z" style="fill:#fff;fill-rule:evenodd"/>
     <path style="fill:#fff;fill-rule:evenodd" d="m92.96 496.2-7.062 7.061 4.275 7.283 4.656-4.726 1.951 3.506 2.383-2.438zm-1.018 4.728 1.36 2.387-2.651 2.665-1.353-2.42z" transform="scale(.2646)"/>
    </g>
    <g transform="matrix(.9951 0 0 .9951 41.76 98.02)">
     <path style="fill:#fff;fill-rule:evenodd" d="m21.69 134.2 0.7135-0.7135 1.276 2.21 1.068-1.068 0.3716 0.6144-1.803 1.803z"/>
     <path style="fill:#fff;fill-rule:evenodd" d="m92.96 496.2-7.062 7.061 4.275 7.283 4.656-4.726 1.951 3.506 2.383-2.438zm-1.018 4.728 1.36 2.387-2.651 2.665-1.353-2.42z" transform="scale(.2646)"/>
    </g>
    <g transform="matrix(.9951 0 0 .9951 30.11 98.02)">
     <path style="fill:#fff;fill-rule:evenodd" d="m21.69 134.2 0.7135-0.7135 1.276 2.21 1.068-1.068 0.3716 0.6144-1.803 1.803z"/>
     <path style="fill:#fff;fill-rule:evenodd" d="m92.96 496.2-7.062 7.061 4.275 7.283 4.656-4.726 1.951 3.506 2.383-2.438zm-1.018 4.728 1.36 2.387-2.651 2.665-1.353-2.42z" transform="scale(.2646)"/>
    </g>
    <g transform="matrix(.9951 0 0 .9951 24.29 98.02)">
     <path d="m21.69 134.2 0.7135-0.7135 1.276 2.21 1.068-1.068 0.3716 0.6144-1.803 1.803z" style="fill:#fff;fill-rule:evenodd"/>
     <path style="fill:#fff;fill-rule:evenodd" d="m92.96 496.2-7.062 7.061 4.275 7.283 4.656-4.726 1.951 3.506 2.383-2.438zm-1.018 4.728 1.36 2.387-2.651 2.665-1.353-2.42z" transform="scale(.2646)"/>
    </g>
    <g transform="matrix(.9951 0 0 .9951 18.47 98.02)">
     <path style="fill:#fff;fill-rule:evenodd" d="m21.69 134.2 0.7135-0.7135 1.276 2.21 1.068-1.068 0.3716 0.6144-1.803 1.803z"/>
     <path style="fill:#fff;fill-rule:evenodd" d="m92.96 496.2-7.062 7.061 4.275 7.283 4.656-4.726 1.951 3.506 2.383-2.438zm-1.018 4.728 1.36 2.387-2.651 2.665-1.353-2.42z" transform="scale(.2646)"/>
    </g>
    <g transform="matrix(.9951 0 0 .9951 12.65 98.02)">
     <path d="m21.69 134.2 0.7135-0.7135 1.276 2.21 1.068-1.068 0.3716 0.6144-1.803 1.803z" style="fill:#fff;fill-rule:evenodd"/>
     <path style="fill:#fff;fill-rule:evenodd" d="m92.96 496.2-7.062 7.061 4.275 7.283 4.656-4.726 1.951 3.506 2.383-2.438zm-1.018 4.728 1.36 2.387-2.651 2.665-1.353-2.42z" transform="scale(.2646)"/>
    </g>
    <g transform="matrix(.9951 0 0 .9951 6.83 98.02)">
     <path style="fill:#fff;fill-rule:evenodd" d="m21.69 134.2 0.7135-0.7135 1.276 2.21 1.068-1.068 0.3716 0.6144-1.803 1.803z"/>
     <path style="fill:#fff;fill-rule:evenodd" d="m92.96 496.2-7.062 7.061 4.275 7.283 4.656-4.726 1.951 3.506 2.383-2.438zm-1.018 4.728 1.36 2.387-2.651 2.665-1.353-2.42z" transform="scale(.2646)"/>
    </g>
    <g transform="matrix(.9951 0 0 .9951 1.009 98.02)">
     <path d="m21.69 134.2 0.7135-0.7135 1.276 2.21 1.068-1.068 0.3716 0.6144-1.803 1.803z" style="fill:#fff;fill-rule:evenodd"/>
     <path style="fill:#fff;fill-rule:evenodd" d="m92.96 496.2-7.062 7.061 4.275 7.283 4.656-4.726 1.951 3.506 2.383-2.438zm-1.018 4.728 1.36 2.387-2.651 2.665-1.353-2.42z" transform="scale(.2646)"/>
    </g>
    <g transform="matrix(.9951 0 0 .9951 -4.811 98.02)">
     <path style="fill:#fff;fill-rule:evenodd" d="m21.69 134.2 0.7135-0.7135 1.276 2.21 1.068-1.068 0.3716 0.6144-1.803 1.803z"/>
     <path style="fill:#fff;fill-rule:evenodd" d="m92.96 496.2-7.062 7.061 4.275 7.283 4.656-4.726 1.951 3.506 2.383-2.438zm-1.018 4.728 1.36 2.387-2.651 2.665-1.353-2.42z" transform="scale(.2646)"/>
    </g>
    <g transform="matrix(.9951 0 0 .9951 -10.63 98.02)">
     <path d="m21.69 134.2 0.7135-0.7135 1.276 2.21 1.068-1.068 0.3716 0.6144-1.803 1.803z" style="fill:#fff;fill-rule:evenodd"/>
     <path style="fill:#fff;fill-rule:evenodd" d="m92.96 496.2-7.062 7.061 4.275 7.283 4.656-4.726 1.951 3.506 2.383-2.438zm-1.018 4.728 1.36 2.387-2.651 2.665-1.353-2.42z" transform="scale(.2646)"/>
    </g>
    <g transform="matrix(.9951 0 0 .9951 -16.45 98.02)">
     <path style="fill:#fff;fill-rule:evenodd" d="m21.69 134.2 0.7135-0.7135 1.276 2.21 1.068-1.068 0.3716 0.6144-1.803 1.803z"/>
     <path style="fill:#fff;fill-rule:evenodd" d="m92.96 496.2-7.062 7.061 4.275 7.283 4.656-4.726 1.951 3.506 2.383-2.438zm-1.018 4.728 1.36 2.387-2.651 2.665-1.353-2.42z" transform="scale(.2646)"/>
    </g>
    <g transform="matrix(.9951 0 0 .9951 -22.27 98.02)">
     <path d="m21.69 134.2 0.7135-0.7135 1.276 2.21 1.068-1.068 0.3716 0.6144-1.803 1.803z" style="fill:#fff;fill-rule:evenodd"/>
     <path style="fill:#fff;fill-rule:evenodd" d="m92.96 496.2-7.062 7.061 4.275 7.283 4.656-4.726 1.951 3.506 2.383-2.438zm-1.018 4.728 1.36 2.387-2.651 2.665-1.353-2.42z" transform="scale(.2646)"/>
    </g>
   </g>
   <g transform="translate(-37.04 28.86)">
    <g transform="matrix(.9951 0 0 .9951 35.93 98.02)">
     <path style="fill:#fff;fill-rule:evenodd" d="m21.69 134.2 0.7135-0.7135 1.276 2.21 1.068-1.068 0.3716 0.6144-1.803 1.803z"/>
     <path style="fill:#fff;fill-rule:evenodd" d="m92.96 496.2-7.062 7.061 4.275 7.283 4.656-4.726 1.951 3.506 2.383-2.438zm-1.018 4.728 1.36 2.387-2.651 2.665-1.353-2.42z" transform="scale(.2646)"/>
    </g>
    <g transform="matrix(.9951 0 0 .9951 41.76 98.02)">
     <path d="m21.69 134.2 0.7135-0.7135 1.276 2.21 1.068-1.068 0.3716 0.6144-1.803 1.803z" style="fill:#fff;fill-rule:evenodd"/>
     <path style="fill:#fff;fill-rule:evenodd" d="m92.96 496.2-7.062 7.061 4.275 7.283 4.656-4.726 1.951 3.506 2.383-2.438zm-1.018 4.728 1.36 2.387-2.651 2.665-1.353-2.42z" transform="scale(.2646)"/>
    </g>
    <g transform="matrix(.9951 0 0 .9951 30.11 98.02)">
     <path d="m21.69 134.2 0.7135-0.7135 1.276 2.21 1.068-1.068 0.3716 0.6144-1.803 1.803z" style="fill:#fff;fill-rule:evenodd"/>
     <path style="fill:#fff;fill-rule:evenodd" d="m92.96 496.2-7.062 7.061 4.275 7.283 4.656-4.726 1.951 3.506 2.383-2.438zm-1.018 4.728 1.36 2.387-2.651 2.665-1.353-2.42z" transform="scale(.2646)"/>
    </g>
    <g transform="matrix(.9951 0 0 .9951 24.29 98.02)">
     <path style="fill:#fff;fill-rule:evenodd" d="m21.69 134.2 0.7135-0.7135 1.276 2.21 1.068-1.068 0.3716 0.6144-1.803 1.803z"/>
     <path style="fill:#fff;fill-rule:evenodd" d="m92.96 496.2-7.062 7.061 4.275 7.283 4.656-4.726 1.951 3.506 2.383-2.438zm-1.018 4.728 1.36 2.387-2.651 2.665-1.353-2.42z" transform="scale(.2646)"/>
    </g>
    <g transform="matrix(.9951 0 0 .9951 18.47 98.02)">
     <path d="m21.69 134.2 0.7135-0.7135 1.276 2.21 1.068-1.068 0.3716 0.6144-1.803 1.803z" style="fill:#fff;fill-rule:evenodd"/>
     <path style="fill:#fff;fill-rule:evenodd" d="m92.96 496.2-7.062 7.061 4.275 7.283 4.656-4.726 1.951 3.506 2.383-2.438zm-1.018 4.728 1.36 2.387-2.651 2.665-1.353-2.42z" transform="scale(.2646)"/>
    </g>
    <g transform="matrix(.9951 0 0 .9951 12.65 98.02)">
     <path style="fill:#fff;fill-rule:evenodd" d="m21.69 134.2 0.7135-0.7135 1.276 2.21 1.068-1.068 0.3716 0.6144-1.803 1.803z"/>
     <path style="fill:#fff;fill-rule:evenodd" d="m92.96 496.2-7.062 7.061 4.275 7.283 4.656-4.726 1.951 3.506 2.383-2.438zm-1.018 4.728 1.36 2.387-2.651 2.665-1.353-2.42z" transform="scale(.2646)"/>
    </g>
    <g transform="matrix(.9951 0 0 .9951 6.83 98.02)">
     <path d="m21.69 134.2 0.7135-0.7135 1.276 2.21 1.068-1.068 0.3716 0.6144-1.803 1.803z" style="fill:#fff;fill-rule:evenodd"/>
     <path style="fill:#fff;fill-rule:evenodd" d="m92.96 496.2-7.062 7.061 4.275 7.283 4.656-4.726 1.951 3.506 2.383-2.438zm-1.018 4.728 1.36 2.387-2.651 2.665-1.353-2.42z" transform="scale(.2646)"/>
    </g>
    <g transform="matrix(.9951 0 0 .9951 1.009 98.02)">
     <path style="fill:#fff;fill-rule:evenodd" d="m21.69 134.2 0.7135-0.7135 1.276 2.21 1.068-1.068 0.3716 0.6144-1.803 1.803z"/>
     <path style="fill:#fff;fill-rule:evenodd" d="m92.96 496.2-7.062 7.061 4.275 7.283 4.656-4.726 1.951 3.506 2.383-2.438zm-1.018 4.728 1.36 2.387-2.651 2.665-1.353-2.42z" transform="scale(.2646)"/>
    </g>
    <g transform="matrix(.9951 0 0 .9951 -4.811 98.02)">
     <path d="m21.69 134.2 0.7135-0.7135 1.276 2.21 1.068-1.068 0.3716 0.6144-1.803 1.803z" style="fill:#fff;fill-rule:evenodd"/>
     <path style="fill:#fff;fill-rule:evenodd" d="m92.96 496.2-7.062 7.061 4.275 7.283 4.656-4.726 1.951 3.506 2.383-2.438zm-1.018 4.728 1.36 2.387-2.651 2.665-1.353-2.42z" transform="scale(.2646)"/>
    </g>
    <g transform="matrix(.9951 0 0 .9951 -10.63 98.02)">
     <path style="fill:#fff;fill-rule:evenodd" d="m21.69 134.2 0.7135-0.7135 1.276 2.21 1.068-1.068 0.3716 0.6144-1.803 1.803z"/>
     <path style="fill:#fff;fill-rule:evenodd" d="m92.96 496.2-7.062 7.061 4.275 7.283 4.656-4.726 1.951 3.506 2.383-2.438zm-1.018 4.728 1.36 2.387-2.651 2.665-1.353-2.42z" transform="scale(.2646)"/>
    </g>
    <g transform="matrix(.9951 0 0 .9951 -16.45 98.02)">
     <path d="m21.69 134.2 0.7135-0.7135 1.276 2.21 1.068-1.068 0.3716 0.6144-1.803 1.803z" style="fill:#fff;fill-rule:evenodd"/>
     <path style="fill:#fff;fill-rule:evenodd" d="m92.96 496.2-7.062 7.061 4.275 7.283 4.656-4.726 1.951 3.506 2.383-2.438zm-1.018 4.728 1.36 2.387-2.651 2.665-1.353-2.42z" transform="scale(.2646)"/>
    </g>
    <g transform="matrix(.9951 0 0 .9951 -22.27 98.02)">
     <path style="fill:#fff;fill-rule:evenodd" d="m21.69 134.2 0.7135-0.7135 1.276 2.21 1.068-1.068 0.3716 0.6144-1.803 1.803z"/>
     <path style="fill:#fff;fill-rule:evenodd" d="m92.96 496.2-7.062 7.061 4.275 7.283 4.656-4.726 1.951 3.506 2.383-2.438zm-1.018 4.728 1.36 2.387-2.651 2.665-1.353-2.42z" transform="scale(.2646)"/>
    </g>
   </g>
   <g transform="translate(-37.04 34.64)">
    <g transform="matrix(.9951 0 0 .9951 35.93 98.02)">
     <path d="m21.69 134.2 0.7135-0.7135 1.276 2.21 1.068-1.068 0.3716 0.6144-1.803 1.803z" style="fill:#fff;fill-rule:evenodd"/>
     <path style="fill:#fff;fill-rule:evenodd" d="m92.96 496.2-7.062 7.061 4.275 7.283 4.656-4.726 1.951 3.506 2.383-2.438zm-1.018 4.728 1.36 2.387-2.651 2.665-1.353-2.42z" transform="scale(.2646)"/>
    </g>
    <g transform="matrix(.9951 0 0 .9951 41.76 98.02)">
     <path style="fill:#fff;fill-rule:evenodd" d="m21.69 134.2 0.7135-0.7135 1.276 2.21 1.068-1.068 0.3716 0.6144-1.803 1.803z"/>
     <path style="fill:#fff;fill-rule:evenodd" d="m92.96 496.2-7.062 7.061 4.275 7.283 4.656-4.726 1.951 3.506 2.383-2.438zm-1.018 4.728 1.36 2.387-2.651 2.665-1.353-2.42z" transform="scale(.2646)"/>
    </g>
    <g transform="matrix(.9951 0 0 .9951 30.11 98.02)">
     <path style="fill:#fff;fill-rule:evenodd" d="m21.69 134.2 0.7135-0.7135 1.276 2.21 1.068-1.068 0.3716 0.6144-1.803 1.803z"/>
     <path style="fill:#fff;fill-rule:evenodd" d="m92.96 496.2-7.062 7.061 4.275 7.283 4.656-4.726 1.951 3.506 2.383-2.438zm-1.018 4.728 1.36 2.387-2.651 2.665-1.353-2.42z" transform="scale(.2646)"/>
    </g>
    <g transform="matrix(.9951 0 0 .9951 24.29 98.02)">
     <path d="m21.69 134.2 0.7135-0.7135 1.276 2.21 1.068-1.068 0.3716 0.6144-1.803 1.803z" style="fill:#fff;fill-rule:evenodd"/>
     <path style="fill:#fff;fill-rule:evenodd" d="m92.96 496.2-7.062 7.061 4.275 7.283 4.656-4.726 1.951 3.506 2.383-2.438zm-1.018 4.728 1.36 2.387-2.651 2.665-1.353-2.42z" transform="scale(.2646)"/>
    </g>
    <g transform="matrix(.9951 0 0 .9951 18.47 98.02)">
     <path style="fill:#fff;fill-rule:evenodd" d="m21.69 134.2 0.7135-0.7135 1.276 2.21 1.068-1.068 0.3716 0.6144-1.803 1.803z"/>
     <path style="fill:#fff;fill-rule:evenodd" d="m92.96 496.2-7.062 7.061 4.275 7.283 4.656-4.726 1.951 3.506 2.383-2.438zm-1.018 4.728 1.36 2.387-2.651 2.665-1.353-2.42z" transform="scale(.2646)"/>
    </g>
    <g transform="matrix(.9951 0 0 .9951 12.65 98.02)">
     <path d="m21.69 134.2 0.7135-0.7135 1.276 2.21 1.068-1.068 0.3716 0.6144-1.803 1.803z" style="fill:#fff;fill-rule:evenodd"/>
     <path style="fill:#fff;fill-rule:evenodd" d="m92.96 496.2-7.062 7.061 4.275 7.283 4.656-4.726 1.951 3.506 2.383-2.438zm-1.018 4.728 1.36 2.387-2.651 2.665-1.353-2.42z" transform="scale(.2646)"/>
    </g>
    <g transform="matrix(.9951 0 0 .9951 6.83 98.02)">
     <path style="fill:#fff;fill-rule:evenodd" d="m21.69 134.2 0.7135-0.7135 1.276 2.21 1.068-1.068 0.3716 0.6144-1.803 1.803z"/>
     <path style="fill:#fff;fill-rule:evenodd" d="m92.96 496.2-7.062 7.061 4.275 7.283 4.656-4.726 1.951 3.506 2.383-2.438zm-1.018 4.728 1.36 2.387-2.651 2.665-1.353-2.42z" transform="scale(.2646)"/>
    </g>
    <g transform="matrix(.9951 0 0 .9951 1.009 98.02)">
     <path d="m21.69 134.2 0.7135-0.7135 1.276 2.21 1.068-1.068 0.3716 0.6144-1.803 1.803z" style="fill:#fff;fill-rule:evenodd"/>
     <path style="fill:#fff;fill-rule:evenodd" d="m92.96 496.2-7.062 7.061 4.275 7.283 4.656-4.726 1.951 3.506 2.383-2.438zm-1.018 4.728 1.36 2.387-2.651 2.665-1.353-2.42z" transform="scale(.2646)"/>
    </g>
    <g transform="matrix(.9951 0 0 .9951 -4.811 98.02)">
     <path style="fill:#fff;fill-rule:evenodd" d="m21.69 134.2 0.7135-0.7135 1.276 2.21 1.068-1.068 0.3716 0.6144-1.803 1.803z"/>
     <path style="fill:#fff;fill-rule:evenodd" d="m92.96 496.2-7.062 7.061 4.275 7.283 4.656-4.726 1.951 3.506 2.383-2.438zm-1.018 4.728 1.36 2.387-2.651 2.665-1.353-2.42z" transform="scale(.2646)"/>
    </g>
    <g transform="matrix(.9951 0 0 .9951 -10.63 98.02)">
     <path d="m21.69 134.2 0.7135-0.7135 1.276 2.21 1.068-1.068 0.3716 0.6144-1.803 1.803z" style="fill:#fff;fill-rule:evenodd"/>
     <path style="fill:#fff;fill-rule:evenodd" d="m92.96 496.2-7.062 7.061 4.275 7.283 4.656-4.726 1.951 3.506 2.383-2.438zm-1.018 4.728 1.36 2.387-2.651 2.665-1.353-2.42z" transform="scale(.2646)"/>
    </g>
    <g transform="matrix(.9951 0 0 .9951 -16.45 98.02)">
     <path style="fill:#fff;fill-rule:evenodd" d="m21.69 134.2 0.7135-0.7135 1.276 2.21 1.068-1.068 0.3716 0.6144-1.803 1.803z"/>
     <path style="fill:#fff;fill-rule:evenodd" d="m92.96 496.2-7.062 7.061 4.275 7.283 4.656-4.726 1.951 3.506 2.383-2.438zm-1.018 4.728 1.36 2.387-2.651 2.665-1.353-2.42z" transform="scale(.2646)"/>
    </g>
    <g transform="matrix(.9951 0 0 .9951 -22.27 98.02)">
     <path d="m21.69 134.2 0.7135-0.7135 1.276 2.21 1.068-1.068 0.3716 0.6144-1.803 1.803z" style="fill:#fff;fill-rule:evenodd"/>
     <path style="fill:#fff;fill-rule:evenodd" d="m92.96 496.2-7.062 7.061 4.275 7.283 4.656-4.726 1.951 3.506 2.383-2.438zm-1.018 4.728 1.36 2.387-2.651 2.665-1.353-2.42z" transform="scale(.2646)"/>
    </g>
   </g>
   <g transform="translate(-37.04 40.41)">
    <g transform="matrix(.9951 0 0 .9951 35.93 98.02)">
     <path style="fill:#fff;fill-rule:evenodd" d="m21.69 134.2 0.7135-0.7135 1.276 2.21 1.068-1.068 0.3716 0.6144-1.803 1.803z"/>
     <path style="fill:#fff;fill-rule:evenodd" d="m92.96 496.2-7.062 7.061 4.275 7.283 4.656-4.726 1.951 3.506 2.383-2.438zm-1.018 4.728 1.36 2.387-2.651 2.665-1.353-2.42z" transform="scale(.2646)"/>
    </g>
    <g transform="matrix(.9951 0 0 .9951 41.76 98.02)">
     <path d="m21.69 134.2 0.7135-0.7135 1.276 2.21 1.068-1.068 0.3716 0.6144-1.803 1.803z" style="fill:#fff;fill-rule:evenodd"/>
     <path style="fill:#fff;fill-rule:evenodd" d="m92.96 496.2-7.062 7.061 4.275 7.283 4.656-4.726 1.951 3.506 2.383-2.438zm-1.018 4.728 1.36 2.387-2.651 2.665-1.353-2.42z" transform="scale(.2646)"/>
    </g>
    <g transform="matrix(.9951 0 0 .9951 30.11 98.02)">
     <path d="m21.69 134.2 0.7135-0.7135 1.276 2.21 1.068-1.068 0.3716 0.6144-1.803 1.803z" style="fill:#fff;fill-rule:evenodd"/>
     <path style="fill:#fff;fill-rule:evenodd" d="m92.96 496.2-7.062 7.061 4.275 7.283 4.656-4.726 1.951 3.506 2.383-2.438zm-1.018 4.728 1.36 2.387-2.651 2.665-1.353-2.42z" transform="scale(.2646)"/>
    </g>
    <g transform="matrix(.9951 0 0 .9951 24.29 98.02)">
     <path style="fill:#fff;fill-rule:evenodd" d="m21.69 134.2 0.7135-0.7135 1.276 2.21 1.068-1.068 0.3716 0.6144-1.803 1.803z"/>
     <path style="fill:#fff;fill-rule:evenodd" d="m92.96 496.2-7.062 7.061 4.275 7.283 4.656-4.726 1.951 3.506 2.383-2.438zm-1.018 4.728 1.36 2.387-2.651 2.665-1.353-2.42z" transform="scale(.2646)"/>
    </g>
    <g transform="matrix(.9951 0 0 .9951 18.47 98.02)">
     <path d="m21.69 134.2 0.7135-0.7135 1.276 2.21 1.068-1.068 0.3716 0.6144-1.803 1.803z" style="fill:#fff;fill-rule:evenodd"/>
     <path style="fill:#fff;fill-rule:evenodd" d="m92.96 496.2-7.062 7.061 4.275 7.283 4.656-4.726 1.951 3.506 2.383-2.438zm-1.018 4.728 1.36 2.387-2.651 2.665-1.353-2.42z" transform="scale(.2646)"/>
    </g>
    <g transform="matrix(.9951 0 0 .9951 12.65 98.02)">
     <path style="fill:#fff;fill-rule:evenodd" d="m21.69 134.2 0.7135-0.7135 1.276 2.21 1.068-1.068 0.3716 0.6144-1.803 1.803z"/>
     <path style="fill:#fff;fill-rule:evenodd" d="m92.96 496.2-7.062 7.061 4.275 7.283 4.656-4.726 1.951 3.506 2.383-2.438zm-1.018 4.728 1.36 2.387-2.651 2.665-1.353-2.42z" transform="scale(.2646)"/>
    </g>
    <g transform="matrix(.9951 0 0 .9951 6.83 98.02)">
     <path d="m21.69 134.2 0.7135-0.7135 1.276 2.21 1.068-1.068 0.3716 0.6144-1.803 1.803z" style="fill:#fff;fill-rule:evenodd"/>
     <path style="fill:#fff;fill-rule:evenodd" d="m92.96 496.2-7.062 7.061 4.275 7.283 4.656-4.726 1.951 3.506 2.383-2.438zm-1.018 4.728 1.36 2.387-2.651 2.665-1.353-2.42z" transform="scale(.2646)"/>
    </g>
    <g transform="matrix(.9951 0 0 .9951 1.009 98.02)">
     <path style="fill:#fff;fill-rule:evenodd" d="m21.69 134.2 0.7135-0.7135 1.276 2.21 1.068-1.068 0.3716 0.6144-1.803 1.803z"/>
     <path style="fill:#fff;fill-rule:evenodd" d="m92.96 496.2-7.062 7.061 4.275 7.283 4.656-4.726 1.951 3.506 2.383-2.438zm-1.018 4.728 1.36 2.387-2.651 2.665-1.353-2.42z" transform="scale(.2646)"/>
    </g>
    <g transform="matrix(.9951 0 0 .9951 -4.811 98.02)">
     <path d="m21.69 134.2 0.7135-0.7135 1.276 2.21 1.068-1.068 0.3716 0.6144-1.803 1.803z" style="fill:#fff;fill-rule:evenodd"/>
     <path style="fill:#fff;fill-rule:evenodd" d="m92.96 496.2-7.062 7.061 4.275 7.283 4.656-4.726 1.951 3.506 2.383-2.438zm-1.018 4.728 1.36 2.387-2.651 2.665-1.353-2.42z" transform="scale(.2646)"/>
    </g>
    <g transform="matrix(.9951 0 0 .9951 -10.63 98.02)">
     <path style="fill:#fff;fill-rule:evenodd" d="m21.69 134.2 0.7135-0.7135 1.276 2.21 1.068-1.068 0.3716 0.6144-1.803 1.803z"/>
     <path style="fill:#fff;fill-rule:evenodd" d="m92.96 496.2-7.062 7.061 4.275 7.283 4.656-4.726 1.951 3.506 2.383-2.438zm-1.018 4.728 1.36 2.387-2.651 2.665-1.353-2.42z" transform="scale(.2646)"/>
    </g>
    <g transform="matrix(.9951 0 0 .9951 -16.45 98.02)">
     <path d="m21.69 134.2 0.7135-0.7135 1.276 2.21 1.068-1.068 0.3716 0.6144-1.803 1.803z" style="fill:#fff;fill-rule:evenodd"/>
     <path style="fill:#fff;fill-rule:evenodd" d="m92.96 496.2-7.062 7.061 4.275 7.283 4.656-4.726 1.951 3.506 2.383-2.438zm-1.018 4.728 1.36 2.387-2.651 2.665-1.353-2.42z" transform="scale(.2646)"/>
    </g>
    <g transform="matrix(.9951 0 0 .9951 -22.27 98.02)">
     <path style="fill:#fff;fill-rule:evenodd" d="m21.69 134.2 0.7135-0.7135 1.276 2.21 1.068-1.068 0.3716 0.6144-1.803 1.803z"/>
     <path style="fill:#fff;fill-rule:evenodd" d="m92.96 496.2-7.062 7.061 4.275 7.283 4.656-4.726 1.951 3.506 2.383-2.438zm-1.018 4.728 1.36 2.387-2.651 2.665-1.353-2.42z" transform="scale(.2646)"/>
    </g>
   </g>
   <g transform="translate(-37.04 46.18)">
    <g transform="matrix(.9951 0 0 .9951 35.93 98.02)">
     <path d="m21.69 134.2 0.7135-0.7135 1.276 2.21 1.068-1.068 0.3716 0.6144-1.803 1.803z" style="fill:#fff;fill-rule:evenodd"/>
     <path style="fill:#fff;fill-rule:evenodd" d="m92.96 496.2-7.062 7.061 4.275 7.283 4.656-4.726 1.951 3.506 2.383-2.438zm-1.018 4.728 1.36 2.387-2.651 2.665-1.353-2.42z" transform="scale(.2646)"/>
    </g>
    <g transform="matrix(.9951 0 0 .9951 41.76 98.02)">
     <path style="fill:#fff;fill-rule:evenodd" d="m21.69 134.2 0.7135-0.7135 1.276 2.21 1.068-1.068 0.3716 0.6144-1.803 1.803z"/>
     <path style="fill:#fff;fill-rule:evenodd" d="m92.96 496.2-7.062 7.061 4.275 7.283 4.656-4.726 1.951 3.506 2.383-2.438zm-1.018 4.728 1.36 2.387-2.651 2.665-1.353-2.42z" transform="scale(.2646)"/>
    </g>
    <g transform="matrix(.9951 0 0 .9951 30.11 98.02)">
     <path style="fill:#fff;fill-rule:evenodd" d="m21.69 134.2 0.7135-0.7135 1.276 2.21 1.068-1.068 0.3716 0.6144-1.803 1.803z"/>
     <path style="fill:#fff;fill-rule:evenodd" d="m92.96 496.2-7.062 7.061 4.275 7.283 4.656-4.726 1.951 3.506 2.383-2.438zm-1.018 4.728 1.36 2.387-2.651 2.665-1.353-2.42z" transform="scale(.2646)"/>
    </g>
    <g transform="matrix(.9951 0 0 .9951 24.29 98.02)">
     <path d="m21.69 134.2 0.7135-0.7135 1.276 2.21 1.068-1.068 0.3716 0.6144-1.803 1.803z" style="fill:#fff;fill-rule:evenodd"/>
     <path style="fill:#fff;fill-rule:evenodd" d="m92.96 496.2-7.062 7.061 4.275 7.283 4.656-4.726 1.951 3.506 2.383-2.438zm-1.018 4.728 1.36 2.387-2.651 2.665-1.353-2.42z" transform="scale(.2646)"/>
    </g>
    <g transform="matrix(.9951 0 0 .9951 18.47 98.02)">
     <path style="fill:#fff;fill-rule:evenodd" d="m21.69 134.2 0.7135-0.7135 1.276 2.21 1.068-1.068 0.3716 0.6144-1.803 1.803z"/>
     <path style="fill:#fff;fill-rule:evenodd" d="m92.96 496.2-7.062 7.061 4.275 7.283 4.656-4.726 1.951 3.506 2.383-2.438zm-1.018 4.728 1.36 2.387-2.651 2.665-1.353-2.42z" transform="scale(.2646)"/>
    </g>
    <g transform="matrix(.9951 0 0 .9951 12.65 98.02)">
     <path d="m21.69 134.2 0.7135-0.7135 1.276 2.21 1.068-1.068 0.3716 0.6144-1.803 1.803z" style="fill:#fff;fill-rule:evenodd"/>
     <path style="fill:#fff;fill-rule:evenodd" d="m92.96 496.2-7.062 7.061 4.275 7.283 4.656-4.726 1.951 3.506 2.383-2.438zm-1.018 4.728 1.36 2.387-2.651 2.665-1.353-2.42z" transform="scale(.2646)"/>
    </g>
    <g transform="matrix(.9951 0 0 .9951 6.83 98.02)">
     <path style="fill:#fff;fill-rule:evenodd" d="m21.69 134.2 0.7135-0.7135 1.276 2.21 1.068-1.068 0.3716 0.6144-1.803 1.803z"/>
     <path style="fill:#fff;fill-rule:evenodd" d="m92.96 496.2-7.062 7.061 4.275 7.283 4.656-4.726 1.951 3.506 2.383-2.438zm-1.018 4.728 1.36 2.387-2.651 2.665-1.353-2.42z" transform="scale(.2646)"/>
    </g>
    <g transform="matrix(.9951 0 0 .9951 1.009 98.02)">
     <path d="m21.69 134.2 0.7135-0.7135 1.276 2.21 1.068-1.068 0.3716 0.6144-1.803 1.803z" style="fill:#fff;fill-rule:evenodd"/>
     <path style="fill:#fff;fill-rule:evenodd" d="m92.96 496.2-7.062 7.061 4.275 7.283 4.656-4.726 1.951 3.506 2.383-2.438zm-1.018 4.728 1.36 2.387-2.651 2.665-1.353-2.42z" transform="scale(.2646)"/>
    </g>
    <g transform="matrix(.9951 0 0 .9951 -4.811 98.02)">
     <path style="fill:#fff;fill-rule:evenodd" d="m21.69 134.2 0.7135-0.7135 1.276 2.21 1.068-1.068 0.3716 0.6144-1.803 1.803z"/>
     <path style="fill:#fff;fill-rule:evenodd" d="m92.96 496.2-7.062 7.061 4.275 7.283 4.656-4.726 1.951 3.506 2.383-2.438zm-1.018 4.728 1.36 2.387-2.651 2.665-1.353-2.42z" transform="scale(.2646)"/>
    </g>
    <g transform="matrix(.9951 0 0 .9951 -10.63 98.02)">
     <path d="m21.69 134.2 0.7135-0.7135 1.276 2.21 1.068-1.068 0.3716 0.6144-1.803 1.803z" style="fill:#fff;fill-rule:evenodd"/>
     <path style="fill:#fff;fill-rule:evenodd" d="m92.96 496.2-7.062 7.061 4.275 7.283 4.656-4.726 1.951 3.506 2.383-2.438zm-1.018 4.728 1.36 2.387-2.651 2.665-1.353-2.42z" transform="scale(.2646)"/>
    </g>
    <g transform="matrix(.9951 0 0 .9951 -16.45 98.02)">
     <path style="fill:#fff;fill-rule:evenodd" d="m21.69 134.2 0.7135-0.7135 1.276 2.21 1.068-1.068 0.3716 0.6144-1.803 1.803z"/>
     <path style="fill:#fff;fill-rule:evenodd" d="m92.96 496.2-7.062 7.061 4.275 7.283 4.656-4.726 1.951 3.506 2.383-2.438zm-1.018 4.728 1.36 2.387-2.651 2.665-1.353-2.42z" transform="scale(.2646)"/>
    </g>
    <g transform="matrix(.9951 0 0 .9951 -22.27 98.02)">
     <path d="m21.69 134.2 0.7135-0.7135 1.276 2.21 1.068-1.068 0.3716 0.6144-1.803 1.803z" style="fill:#fff;fill-rule:evenodd"/>
     <path style="fill:#fff;fill-rule:evenodd" d="m92.96 496.2-7.062 7.061 4.275 7.283 4.656-4.726 1.951 3.506 2.383-2.438zm-1.018 4.728 1.36 2.387-2.651 2.665-1.353-2.42z" transform="scale(.2646)"/>
    </g>
   </g>
   <g transform="translate(-37.04 51.95)">
    <g transform="matrix(.9951 0 0 .9951 35.93 98.02)">
     <path style="fill:#fff;fill-rule:evenodd" d="m21.69 134.2 0.7135-0.7135 1.276 2.21 1.068-1.068 0.3716 0.6144-1.803 1.803z"/>
     <path style="fill:#fff;fill-rule:evenodd" d="m92.96 496.2-7.062 7.061 4.275 7.283 4.656-4.726 1.951 3.506 2.383-2.438zm-1.018 4.728 1.36 2.387-2.651 2.665-1.353-2.42z" transform="scale(.2646)"/>
    </g>
    <g transform="matrix(.9951 0 0 .9951 41.76 98.02)">
     <path d="m21.69 134.2 0.7135-0.7135 1.276 2.21 1.068-1.068 0.3716 0.6144-1.803 1.803z" style="fill:#fff;fill-rule:evenodd"/>
     <path style="fill:#fff;fill-rule:evenodd" d="m92.96 496.2-7.062 7.061 4.275 7.283 4.656-4.726 1.951 3.506 2.383-2.438zm-1.018 4.728 1.36 2.387-2.651 2.665-1.353-2.42z" transform="scale(.2646)"/>
    </g>
    <g transform="matrix(.9951 0 0 .9951 30.11 98.02)">
     <path d="m21.69 134.2 0.7135-0.7135 1.276 2.21 1.068-1.068 0.3716 0.6144-1.803 1.803z" style="fill:#fff;fill-rule:evenodd"/>
     <path style="fill:#fff;fill-rule:evenodd" d="m92.96 496.2-7.062 7.061 4.275 7.283 4.656-4.726 1.951 3.506 2.383-2.438zm-1.018 4.728 1.36 2.387-2.651 2.665-1.353-2.42z" transform="scale(.2646)"/>
    </g>
    <g transform="matrix(.9951 0 0 .9951 24.29 98.02)">
     <path style="fill:#fff;fill-rule:evenodd" d="m21.69 134.2 0.7135-0.7135 1.276 2.21 1.068-1.068 0.3716 0.6144-1.803 1.803z"/>
     <path style="fill:#fff;fill-rule:evenodd" d="m92.96 496.2-7.062 7.061 4.275 7.283 4.656-4.726 1.951 3.506 2.383-2.438zm-1.018 4.728 1.36 2.387-2.651 2.665-1.353-2.42z" transform="scale(.2646)"/>
    </g>
    <g transform="matrix(.9951 0 0 .9951 18.47 98.02)">
     <path d="m21.69 134.2 0.7135-0.7135 1.276 2.21 1.068-1.068 0.3716 0.6144-1.803 1.803z" style="fill:#fff;fill-rule:evenodd"/>
     <path style="fill:#fff;fill-rule:evenodd" d="m92.96 496.2-7.062 7.061 4.275 7.283 4.656-4.726 1.951 3.506 2.383-2.438zm-1.018 4.728 1.36 2.387-2.651 2.665-1.353-2.42z" transform="scale(.2646)"/>
    </g>
    <g transform="matrix(.9951 0 0 .9951 12.65 98.02)">
     <path style="fill:#fff;fill-rule:evenodd" d="m21.69 134.2 0.7135-0.7135 1.276 2.21 1.068-1.068 0.3716 0.6144-1.803 1.803z"/>
     <path style="fill:#fff;fill-rule:evenodd" d="m92.96 496.2-7.062 7.061 4.275 7.283 4.656-4.726 1.951 3.506 2.383-2.438zm-1.018 4.728 1.36 2.387-2.651 2.665-1.353-2.42z" transform="scale(.2646)"/>
    </g>
    <g transform="matrix(.9951 0 0 .9951 6.83 98.02)">
     <path d="m21.69 134.2 0.7135-0.7135 1.276 2.21 1.068-1.068 0.3716 0.6144-1.803 1.803z" style="fill:#fff;fill-rule:evenodd"/>
     <path style="fill:#fff;fill-rule:evenodd" d="m92.96 496.2-7.062 7.061 4.275 7.283 4.656-4.726 1.951 3.506 2.383-2.438zm-1.018 4.728 1.36 2.387-2.651 2.665-1.353-2.42z" transform="scale(.2646)"/>
    </g>
    <g transform="matrix(.9951 0 0 .9951 1.009 98.02)">
     <path style="fill:#fff;fill-rule:evenodd" d="m21.69 134.2 0.7135-0.7135 1.276 2.21 1.068-1.068 0.3716 0.6144-1.803 1.803z"/>
     <path style="fill:#fff;fill-rule:evenodd" d="m92.96 496.2-7.062 7.061 4.275 7.283 4.656-4.726 1.951 3.506 2.383-2.438zm-1.018 4.728 1.36 2.387-2.651 2.665-1.353-2.42z" transform="scale(.2646)"/>
    </g>
    <g transform="matrix(.9951 0 0 .9951 -4.811 98.02)">
     <path d="m21.69 134.2 0.7135-0.7135 1.276 2.21 1.068-1.068 0.3716 0.6144-1.803 1.803z" style="fill:#fff;fill-rule:evenodd"/>
     <path style="fill:#fff;fill-rule:evenodd" d="m92.96 496.2-7.062 7.061 4.275 7.283 4.656-4.726 1.951 3.506 2.383-2.438zm-1.018 4.728 1.36 2.387-2.651 2.665-1.353-2.42z" transform="scale(.2646)"/>
    </g>
    <g transform="matrix(.9951 0 0 .9951 -10.63 98.02)">
     <path style="fill:#fff;fill-rule:evenodd" d="m21.69 134.2 0.7135-0.7135 1.276 2.21 1.068-1.068 0.3716 0.6144-1.803 1.803z"/>
     <path style="fill:#fff;fill-rule:evenodd" d="m92.96 496.2-7.062 7.061 4.275 7.283 4.656-4.726 1.951 3.506 2.383-2.438zm-1.018 4.728 1.36 2.387-2.651 2.665-1.353-2.42z" transform="scale(.2646)"/>
    </g>
    <g transform="matrix(.9951 0 0 .9951 -16.45 98.02)">
     <path d="m21.69 134.2 0.7135-0.7135 1.276 2.21 1.068-1.068 0.3716 0.6144-1.803 1.803z" style="fill:#fff;fill-rule:evenodd"/>
     <path style="fill:#fff;fill-rule:evenodd" d="m92.96 496.2-7.062 7.061 4.275 7.283 4.656-4.726 1.951 3.506 2.383-2.438zm-1.018 4.728 1.36 2.387-2.651 2.665-1.353-2.42z" transform="scale(.2646)"/>
    </g>
    <g transform="matrix(.9951 0 0 .9951 -22.27 98.02)">
     <path style="fill:#fff;fill-rule:evenodd" d="m21.69 134.2 0.7135-0.7135 1.276 2.21 1.068-1.068 0.3716 0.6144-1.803 1.803z"/>
     <path style="fill:#fff;fill-rule:evenodd" d="m92.96 496.2-7.062 7.061 4.275 7.283 4.656-4.726 1.951 3.506 2.383-2.438zm-1.018 4.728 1.36 2.387-2.651 2.665-1.353-2.42z" transform="scale(.2646)"/>
    </g>
   </g>
   <g transform="translate(-37.04 57.73)">
    <g transform="matrix(.9951 0 0 .9951 35.93 98.02)">
     <path d="m21.69 134.2 0.7135-0.7135 1.276 2.21 1.068-1.068 0.3716 0.6144-1.803 1.803z" style="fill:#fff;fill-rule:evenodd"/>
     <path style="fill:#fff;fill-rule:evenodd" d="m92.96 496.2-7.062 7.061 4.275 7.283 4.656-4.726 1.951 3.506 2.383-2.438zm-1.018 4.728 1.36 2.387-2.651 2.665-1.353-2.42z" transform="scale(.2646)"/>
    </g>
    <g transform="matrix(.9951 0 0 .9951 41.76 98.02)">
     <path style="fill:#fff;fill-rule:evenodd" d="m21.69 134.2 0.7135-0.7135 1.276 2.21 1.068-1.068 0.3716 0.6144-1.803 1.803z"/>
     <path style="fill:#fff;fill-rule:evenodd" d="m92.96 496.2-7.062 7.061 4.275 7.283 4.656-4.726 1.951 3.506 2.383-2.438zm-1.018 4.728 1.36 2.387-2.651 2.665-1.353-2.42z" transform="scale(.2646)"/>
    </g>
    <g transform="matrix(.9951 0 0 .9951 30.11 98.02)">
     <path style="fill:#fff;fill-rule:evenodd" d="m21.69 134.2 0.7135-0.7135 1.276 2.21 1.068-1.068 0.3716 0.6144-1.803 1.803z"/>
     <path style="fill:#fff;fill-rule:evenodd" d="m92.96 496.2-7.062 7.061 4.275 7.283 4.656-4.726 1.951 3.506 2.383-2.438zm-1.018 4.728 1.36 2.387-2.651 2.665-1.353-2.42z" transform="scale(.2646)"/>
    </g>
    <g transform="matrix(.9951 0 0 .9951 24.29 98.02)">
     <path d="m21.69 134.2 0.7135-0.7135 1.276 2.21 1.068-1.068 0.3716 0.6144-1.803 1.803z" style="fill:#fff;fill-rule:evenodd"/>
     <path style="fill:#fff;fill-rule:evenodd" d="m92.96 496.2-7.062 7.061 4.275 7.283 4.656-4.726 1.951 3.506 2.383-2.438zm-1.018 4.728 1.36 2.387-2.651 2.665-1.353-2.42z" transform="scale(.2646)"/>
    </g>
    <g transform="matrix(.9951 0 0 .9951 18.47 98.02)">
     <path style="fill:#fff;fill-rule:evenodd" d="m21.69 134.2 0.7135-0.7135 1.276 2.21 1.068-1.068 0.3716 0.6144-1.803 1.803z"/>
     <path style="fill:#fff;fill-rule:evenodd" d="m92.96 496.2-7.062 7.061 4.275 7.283 4.656-4.726 1.951 3.506 2.383-2.438zm-1.018 4.728 1.36 2.387-2.651 2.665-1.353-2.42z" transform="scale(.2646)"/>
    </g>
    <g transform="matrix(.9951 0 0 .9951 12.65 98.02)">
     <path d="m21.69 134.2 0.7135-0.7135 1.276 2.21 1.068-1.068 0.3716 0.6144-1.803 1.803z" style="fill:#fff;fill-rule:evenodd"/>
     <path style="fill:#fff;fill-rule:evenodd" d="m92.96 496.2-7.062 7.061 4.275 7.283 4.656-4.726 1.951 3.506 2.383-2.438zm-1.018 4.728 1.36 2.387-2.651 2.665-1.353-2.42z" transform="scale(.2646)"/>
    </g>
    <g transform="matrix(.9951 0 0 .9951 6.83 98.02)">
     <path style="fill:#fff;fill-rule:evenodd" d="m21.69 134.2 0.7135-0.7135 1.276 2.21 1.068-1.068 0.3716 0.6144-1.803 1.803z"/>
     <path style="fill:#fff;fill-rule:evenodd" d="m92.96 496.2-7.062 7.061 4.275 7.283 4.656-4.726 1.951 3.506 2.383-2.438zm-1.018 4.728 1.36 2.387-2.651 2.665-1.353-2.42z" transform="scale(.2646)"/>
    </g>
    <g transform="matrix(.9951 0 0 .9951 1.009 98.02)">
     <path d="m21.69 134.2 0.7135-0.7135 1.276 2.21 1.068-1.068 0.3716 0.6144-1.803 1.803z" style="fill:#fff;fill-rule:evenodd"/>
     <path style="fill:#fff;fill-rule:evenodd" d="m92.96 496.2-7.062 7.061 4.275 7.283 4.656-4.726 1.951 3.506 2.383-2.438zm-1.018 4.728 1.36 2.387-2.651 2.665-1.353-2.42z" transform="scale(.2646)"/>
    </g>
    <g transform="matrix(.9951 0 0 .9951 -4.811 98.02)">
     <path style="fill:#fff;fill-rule:evenodd" d="m21.69 134.2 0.7135-0.7135 1.276 2.21 1.068-1.068 0.3716 0.6144-1.803 1.803z"/>
     <path style="fill:#fff;fill-rule:evenodd" d="m92.96 496.2-7.062 7.061 4.275 7.283 4.656-4.726 1.951 3.506 2.383-2.438zm-1.018 4.728 1.36 2.387-2.651 2.665-1.353-2.42z" transform="scale(.2646)"/>
    </g>
    <g transform="matrix(.9951 0 0 .9951 -10.63 98.02)">
     <path d="m21.69 134.2 0.7135-0.7135 1.276 2.21 1.068-1.068 0.3716 0.6144-1.803 1.803z" style="fill:#fff;fill-rule:evenodd"/>
     <path style="fill:#fff;fill-rule:evenodd" d="m92.96 496.2-7.062 7.061 4.275 7.283 4.656-4.726 1.951 3.506 2.383-2.438zm-1.018 4.728 1.36 2.387-2.651 2.665-1.353-2.42z" transform="scale(.2646)"/>
    </g>
    <g transform="matrix(.9951 0 0 .9951 -16.45 98.02)">
     <path style="fill:#fff;fill-rule:evenodd" d="m21.69 134.2 0.7135-0.7135 1.276 2.21 1.068-1.068 0.3716 0.6144-1.803 1.803z"/>
     <path style="fill:#fff;fill-rule:evenodd" d="m92.96 496.2-7.062 7.061 4.275 7.283 4.656-4.726 1.951 3.506 2.383-2.438zm-1.018 4.728 1.36 2.387-2.651 2.665-1.353-2.42z" transform="scale(.2646)"/>
    </g>
    <g transform="matrix(.9951 0 0 .9951 -22.27 98.02)">
     <path d="m21.69 134.2 0.7135-0.7135 1.276 2.21 1.068-1.068 0.3716 0.6144-1.803 1.803z" style="fill:#fff;fill-rule:evenodd"/>
     <path style="fill:#fff;fill-rule:evenodd" d="m92.96 496.2-7.062 7.061 4.275 7.283 4.656-4.726 1.951 3.506 2.383-2.438zm-1.018 4.728 1.36 2.387-2.651 2.665-1.353-2.42z" transform="scale(.2646)"/>
    </g>
   </g>
   <g transform="translate(-37.04 63.5)">
    <g transform="matrix(.9951 0 0 .9951 35.93 98.02)">
     <path style="fill:#fff;fill-rule:evenodd" d="m21.69 134.2 0.7135-0.7135 1.276 2.21 1.068-1.068 0.3716 0.6144-1.803 1.803z"/>
     <path style="fill:#fff;fill-rule:evenodd" d="m92.96 496.2-7.062 7.061 4.275 7.283 4.656-4.726 1.951 3.506 2.383-2.438zm-1.018 4.728 1.36 2.387-2.651 2.665-1.353-2.42z" transform="scale(.2646)"/>
    </g>
    <g transform="matrix(.9951 0 0 .9951 41.76 98.02)">
     <path d="m21.69 134.2 0.7135-0.7135 1.276 2.21 1.068-1.068 0.3716 0.6144-1.803 1.803z" style="fill:#fff;fill-rule:evenodd"/>
     <path style="fill:#fff;fill-rule:evenodd" d="m92.96 496.2-7.062 7.061 4.275 7.283 4.656-4.726 1.951 3.506 2.383-2.438zm-1.018 4.728 1.36 2.387-2.651 2.665-1.353-2.42z" transform="scale(.2646)"/>
    </g>
    <g transform="matrix(.9951 0 0 .9951 30.11 98.02)">
     <path d="m21.69 134.2 0.7135-0.7135 1.276 2.21 1.068-1.068 0.3716 0.6144-1.803 1.803z" style="fill:#fff;fill-rule:evenodd"/>
     <path style="fill:#fff;fill-rule:evenodd" d="m92.96 496.2-7.062 7.061 4.275 7.283 4.656-4.726 1.951 3.506 2.383-2.438zm-1.018 4.728 1.36 2.387-2.651 2.665-1.353-2.42z" transform="scale(.2646)"/>
    </g>
    <g transform="matrix(.9951 0 0 .9951 24.29 98.02)">
     <path style="fill:#fff;fill-rule:evenodd" d="m21.69 134.2 0.7135-0.7135 1.276 2.21 1.068-1.068 0.3716 0.6144-1.803 1.803z"/>
     <path style="fill:#fff;fill-rule:evenodd" d="m92.96 496.2-7.062 7.061 4.275 7.283 4.656-4.726 1.951 3.506 2.383-2.438zm-1.018 4.728 1.36 2.387-2.651 2.665-1.353-2.42z" transform="scale(.2646)"/>
    </g>
    <g transform="matrix(.9951 0 0 .9951 18.47 98.02)">
     <path d="m21.69 134.2 0.7135-0.7135 1.276 2.21 1.068-1.068 0.3716 0.6144-1.803 1.803z" style="fill:#fff;fill-rule:evenodd"/>
     <path style="fill:#fff;fill-rule:evenodd" d="m92.96 496.2-7.062 7.061 4.275 7.283 4.656-4.726 1.951 3.506 2.383-2.438zm-1.018 4.728 1.36 2.387-2.651 2.665-1.353-2.42z" transform="scale(.2646)"/>
    </g>
    <g transform="matrix(.9951 0 0 .9951 12.65 98.02)">
     <path style="fill:#fff;fill-rule:evenodd" d="m21.69 134.2 0.7135-0.7135 1.276 2.21 1.068-1.068 0.3716 0.6144-1.803 1.803z"/>
     <path style="fill:#fff;fill-rule:evenodd" d="m92.96 496.2-7.062 7.061 4.275 7.283 4.656-4.726 1.951 3.506 2.383-2.438zm-1.018 4.728 1.36 2.387-2.651 2.665-1.353-2.42z" transform="scale(.2646)"/>
    </g>
    <g transform="matrix(.9951 0 0 .9951 6.83 98.02)">
     <path d="m21.69 134.2 0.7135-0.7135 1.276 2.21 1.068-1.068 0.3716 0.6144-1.803 1.803z" style="fill:#fff;fill-rule:evenodd"/>
     <path style="fill:#fff;fill-rule:evenodd" d="m92.96 496.2-7.062 7.061 4.275 7.283 4.656-4.726 1.951 3.506 2.383-2.438zm-1.018 4.728 1.36 2.387-2.651 2.665-1.353-2.42z" transform="scale(.2646)"/>
    </g>
    <g transform="matrix(.9951 0 0 .9951 1.009 98.02)">
     <path style="fill:#fff;fill-rule:evenodd" d="m21.69 134.2 0.7135-0.7135 1.276 2.21 1.068-1.068 0.3716 0.6144-1.803 1.803z"/>
     <path style="fill:#fff;fill-rule:evenodd" d="m92.96 496.2-7.062 7.061 4.275 7.283 4.656-4.726 1.951 3.506 2.383-2.438zm-1.018 4.728 1.36 2.387-2.651 2.665-1.353-2.42z" transform="scale(.2646)"/>
    </g>
    <g transform="matrix(.9951 0 0 .9951 -4.811 98.02)">
     <path d="m21.69 134.2 0.7135-0.7135 1.276 2.21 1.068-1.068 0.3716 0.6144-1.803 1.803z" style="fill:#fff;fill-rule:evenodd"/>
     <path style="fill:#fff;fill-rule:evenodd" d="m92.96 496.2-7.062 7.061 4.275 7.283 4.656-4.726 1.951 3.506 2.383-2.438zm-1.018 4.728 1.36 2.387-2.651 2.665-1.353-2.42z" transform="scale(.2646)"/>
    </g>
    <g transform="matrix(.9951 0 0 .9951 -10.63 98.02)">
     <path style="fill:#fff;fill-rule:evenodd" d="m21.69 134.2 0.7135-0.7135 1.276 2.21 1.068-1.068 0.3716 0.6144-1.803 1.803z"/>
     <path style="fill:#fff;fill-rule:evenodd" d="m92.96 496.2-7.062 7.061 4.275 7.283 4.656-4.726 1.951 3.506 2.383-2.438zm-1.018 4.728 1.36 2.387-2.651 2.665-1.353-2.42z" transform="scale(.2646)"/>
    </g>
    <g transform="matrix(.9951 0 0 .9951 -16.45 98.02)">
     <path d="m21.69 134.2 0.7135-0.7135 1.276 2.21 1.068-1.068 0.3716 0.6144-1.803 1.803z" style="fill:#fff;fill-rule:evenodd"/>
     <path style="fill:#fff;fill-rule:evenodd" d="m92.96 496.2-7.062 7.061 4.275 7.283 4.656-4.726 1.951 3.506 2.383-2.438zm-1.018 4.728 1.36 2.387-2.651 2.665-1.353-2.42z" transform="scale(.2646)"/>
    </g>
    <g transform="matrix(.9951 0 0 .9951 -22.27 98.02)">
     <path style="fill:#fff;fill-rule:evenodd" d="m21.69 134.2 0.7135-0.7135 1.276 2.21 1.068-1.068 0.3716 0.6144-1.803 1.803z"/>
     <path style="fill:#fff;fill-rule:evenodd" d="m92.96 496.2-7.062 7.061 4.275 7.283 4.656-4.726 1.951 3.506 2.383-2.438zm-1.018 4.728 1.36 2.387-2.651 2.665-1.353-2.42z" transform="scale(.2646)"/>
    </g>
   </g>
  </g>
  <g style="fill:#f00" transform="matrix(5.821 5.821 -5.821 5.821 675.4 -657.3)">
   <path style="fill:#f00;fill-rule:evenodd" d="m21.69 134.2 0.7135-0.7135 1.276 2.21 1.068-1.068 0.3716 0.6144-1.803 1.803z"/>
   <path style="fill:#f00;fill-rule:evenodd" d="m92.96 496.2-7.062 7.061 4.275 7.283 4.656-4.726 1.951 3.506 2.383-2.438zm-1.018 4.728 1.36 2.387-2.651 2.665-1.353-2.42z" transform="scale(.2646)"/>
  </g>
 </g>
</svg>
